<?xml version="1.0" encoding="UTF-8"?>
<svg width="2880px" height="2880px" viewBox="0 0 2880 2880" xmlns="http://www.w3.org/2000/svg" xmlns:xlink="http://www.w3.org/1999/xlink" version="1.1">
 <!-- Generated by Pixelmator Pro 1.7.1 -->
 <path id="Path" d="M1410 2394 L1093 1927" fill="none" stroke="#63ab63" stroke-width="8" stroke-opacity="1" stroke-linejoin="round"/>
 <path id="Path-1" d="M627 1418 L818 1102 848 1437 Z" fill="none" stroke="#98e4fa" stroke-width="8" stroke-opacity="1" stroke-linejoin="round"/>
 <path id="Path-2" d="M975 1347 L848 1440 814 1104 975 1347 Z" fill="none" stroke="#72ccfd" stroke-width="8" stroke-opacity="1" stroke-linejoin="round"/>
 <path id="Path-3" d="M1163 1686 L848 1440 975 1347 1163 1686 Z" fill="none" stroke="#6482c2" stroke-width="8" stroke-opacity="1" stroke-linejoin="round"/>
 <path id="Path-4" d="M1163 1686 L814 1753 848 1440 1163 1686 Z" fill="none" stroke="#fdf1bd" stroke-width="8" stroke-opacity="1" stroke-linejoin="round"/>
 <path id="Path-5" d="M814 1753 L1096 1927 1163 1686 814 1753 Z" fill="none" stroke="#88627b" stroke-width="8" stroke-opacity="1" stroke-linejoin="round"/>
 <path id="Path-6" d="M2041 1855 L1820 2075 1585 2588 1580 2125 1400 2407 1400 1855 1097 1927 1163 1686 1400 1855 1163 1686 1473 1606 1624 1833 1400 1855 1473 1606 1624 1833 1513 1977 1400 1855 1511 1976 1400 2410 1511 1974 1580 2125 1624 1833 1730 2007 1580 2125 1820 2075 1730 2007 1624 1833 1730 2006 2041 1855 Z" fill="none" stroke="#f9d0ac" stroke-width="8" stroke-opacity="1" stroke-linejoin="round"/>
 <path id="Path-7" d="M627 1418 L814 1753 848 1440 627 1418 Z" fill="none" stroke="#b7dbf7" stroke-width="8" stroke-opacity="1" stroke-linejoin="round"/>
 <path id="Path-8" d="M600 1044 L626 1418 814 1104 600 1044 Z" fill="none" stroke="#187581" stroke-width="8" stroke-opacity="1" stroke-linejoin="round"/>
 <path id="Shape" d="M645 1044 C645 1019.147 624.853 999 600 999 575.147 999 555 1019.147 555 1044 555 1068.853 575.147 1089 600 1089 624.853 1089 645 1068.853 645 1044 Z" fill="#00beb3" fill-opacity="1" stroke="none"/>
 <path id="Shape-1" d="M660 1407 C660 1390.432 646.568 1377 630 1377 613.431 1377 600 1390.432 600 1407 600 1423.569 613.431 1437 630 1437 646.568 1437 660 1423.569 660 1407 Z" fill="#005fb1" fill-opacity="1" stroke="none"/>
 <path id="Shape-2" d="M886 1753.5 C886 1720.087 858.913 1693 825.5 1693 792.087 1693 765 1720.087 765 1753.5 765 1786.913 792.087 1814 825.5 1814 858.913 1814 886 1786.913 886 1753.5 Z" fill="#fce587" fill-opacity="1" stroke="none"/>
 <path id="Shape-3" d="M886 1437.5 C886 1416.237 868.763 1399 847.5 1399 826.237 1399 809 1416.237 809 1437.5 809 1458.763 826.237 1476 847.5 1476 868.763 1476 886 1458.763 886 1437.5 Z" fill="#4aaffe" fill-opacity="1" stroke="none"/>
 <path id="Shape-4" d="M1123 1927 C1123 1910.432 1109.568 1897 1093 1897 1076.431 1897 1063 1910.432 1063 1927 1063 1943.569 1076.431 1957 1093 1957 1109.568 1957 1123 1943.569 1123 1927 Z" fill="#dbfcce" fill-opacity="1" stroke="none"/>
 <path id="Shape-5" d="M1196 1683 C1196 1663.118 1179.882 1647 1160 1647 1140.118 1647 1124 1663.118 1124 1683 1124 1702.882 1140.118 1719 1160 1719 1179.882 1719 1196 1702.882 1196 1683 Z" fill="#8b2266" fill-opacity="1" stroke="none"/>
 <path id="Shape-6" d="M1448 1855 C1448 1828.49 1426.51 1807 1400 1807 1373.49 1807 1352 1828.49 1352 1855 1352 1881.51 1373.49 1903 1400 1903 1426.51 1903 1448 1881.51 1448 1855 Z" fill="#a9145a" fill-opacity="1" stroke="none"/>
 <path id="Shape-7" d="M1655 1836 C1655 1817.222 1639.778 1802 1621 1802 1602.222 1802 1587 1817.222 1587 1836 1587 1854.778 1602.222 1870 1621 1870 1639.778 1870 1655 1854.778 1655 1836 Z" fill="#0097f0" fill-opacity="1" stroke="none"/>
 <path id="Shape-8" d="M1766 2008 C1766 1991.432 1752.568 1978 1736 1978 1719.431 1978 1706 1991.432 1706 2008 1706 2024.569 1719.431 2038 1736 2038 1752.568 2038 1766 2024.569 1766 2008 Z" fill="#00a2ff" fill-opacity="1" stroke="none"/>
 <path id="Shape-9" d="M2073 1855 C2073 1838.432 2059.568 1825 2043 1825 2026.431 1825 2013 1838.432 2013 1855 2013 1871.569 2026.431 1885 2043 1885 2059.568 1885 2073 1871.569 2073 1855 Z" fill="#243f8f" fill-opacity="1" stroke="none"/>
 <path id="Shape-10" d="M1627 2119 C1627 2096.356 1608.644 2078 1586 2078 1563.356 2078 1545 2096.356 1545 2119 1545 2141.644 1563.356 2160 1586 2160 1608.644 2160 1627 2141.644 1627 2119 Z" fill="#ef003b" fill-opacity="1" stroke="none"/>
 <path id="Shape-11" d="M1541 1978 C1541 1961.432 1527.568 1948 1511 1948 1494.431 1948 1481 1961.432 1481 1978 1481 1994.569 1494.431 2008 1511 2008 1527.568 2008 1541 1994.569 1541 1978 Z" fill="#ffa659" fill-opacity="1" stroke="none"/>
 <path id="Shape-12" d="M1856 2078.5 C1856 2058.342 1839.658 2042 1819.5 2042 1799.342 2042 1783 2058.342 1783 2078.5 1783 2098.658 1799.342 2115 1819.5 2115 1839.658 2115 1856 2098.658 1856 2078.5 Z" fill="#c495ff" fill-opacity="1" stroke="none"/>
 <path id="Shape-13" d="M1448 2394.5 C1448 2373.237 1430.763 2356 1409.5 2356 1388.237 2356 1371 2373.237 1371 2394.5 1371 2415.763 1388.237 2433 1409.5 2433 1430.763 2433 1448 2415.763 1448 2394.5 Z" fill="#00b100" fill-opacity="1" stroke="none"/>
 <path id="Shape-14" d="M1615 2588 C1615 2571.432 1601.568 2558 1585 2558 1568.431 2558 1555 2571.432 1555 2588 1555 2604.569 1568.431 2618 1585 2618 1601.568 2618 1615 2604.569 1615 2588 Z" fill="#ff6027" fill-opacity="1" stroke="none"/>
 <path id="Path-9" d="M1730 708 L2128 855 2067 892 1730 708 Z" fill="#ff73c7" fill-opacity="1" stroke="#f9a9d9" stroke-width="3" stroke-opacity="1" stroke-linejoin="round"/>
 <path id="Path-10" d="M1864 938 L1730 708 2067 892 1864 938 Z" fill="#ffaed4" fill-opacity="1" stroke="#ffb8e1" stroke-width="3" stroke-opacity="1" stroke-linejoin="round"/>
 <path id="Path-11" d="M1766 640 L1730 708 1909 774 1766 640 Z" fill="#c75b5b" fill-opacity="1" stroke="#941100" stroke-width="3" stroke-opacity="1" stroke-linejoin="round"/>
 <path id="Path-12" d="M1766 640 L1899 615 1870 736 1766 640 Z" fill="#a70416" fill-opacity="1" stroke="#941100" stroke-width="3" stroke-opacity="1" stroke-linejoin="round"/>
 <path id="Path-13" d="M1977 707 L2021 815 1909 774 1870 736 1977 707 Z" fill="#f23169" fill-opacity="1" stroke="#941100" stroke-width="3" stroke-opacity="1" stroke-linejoin="round"/>
 <path id="Path-14" d="M1977 666 L1977 707 1870 736 1977 666 Z" fill="#dc0000" fill-opacity="1" stroke="#941100" stroke-width="3" stroke-opacity="1" stroke-linejoin="round"/>
 <path id="Path-15" d="M1899 615 C1899.658 615.275 1977 666 1977 666 L1870 736 1899 615 Z" fill="#b70217" fill-opacity="1" stroke="#62070e" stroke-width="3" stroke-opacity="1" stroke-linejoin="round"/>
 <path id="Path-16" d="M1839 1024 L1886 1080 2067 892 1863 938 1839 1024 Z" fill="#f95488" fill-opacity="1" stroke="#b53e65" stroke-width="3" stroke-opacity="1" stroke-linejoin="round"/>
 <path id="Path-17" d="M1766 472 L1899 615 1766 640 1766 472 Z" fill="#ff6027" fill-opacity="1" stroke="#ff6027" stroke-width="3" stroke-opacity="1" stroke-linejoin="round"/>
 <path id="Path-18" d="M1766 640 L1624 640 1730 708 1766 640 1766 640 Z" fill="#a05a58" fill-opacity="1" stroke="#8c4e4d" stroke-width="3" stroke-opacity="1" stroke-linejoin="round"/>
 <path id="Path-19" d="M1585 359 L1766 472 1766 640 1585 359 Z" fill="#ff834f" fill-opacity="1" stroke="#ff8a55" stroke-width="3" stroke-opacity="1" stroke-linejoin="round"/>
 <path id="Path-20" d="M1545 565 L1585 359 1766 640 1545 565 Z" fill="#ffa759" fill-opacity="1" stroke="#ffa256" stroke-width="3" stroke-opacity="1" stroke-linejoin="round"/>
 <path id="Path-21" d="M1542 565 L1766 640 1624 640 1440 640 1440 640 1542 565 Z" fill="#b73300" fill-opacity="1" stroke="#c23600" stroke-width="3" stroke-opacity="1" stroke-linejoin="round"/>
 <path id="Path-22" d="M1624 640 L1440 640 1322 855 1624 640 Z" fill="#a5002d" fill-opacity="1" stroke="#924043" stroke-width="3" stroke-opacity="1" stroke-linejoin="round"/>
 <path id="Path-23" d="M1624 800 L1594 747 1730 708 1624 800 Z" fill="#b73300" fill-opacity="1" stroke="#941100" stroke-width="3" stroke-opacity="1" stroke-linejoin="round"/>
 <path id="Path-24" d="M1621 800 L1400 800 1512 722 1594 747 1621 800 Z" fill="#d20000" fill-opacity="1" stroke="#941100" stroke-width="3" stroke-opacity="1" stroke-linejoin="round"/>
 <path id="Path-25" d="M1322 855 L1624 914 1813 855 1624 800 1400 800 1322 855 Z" fill="#ffa759" fill-opacity="1" stroke="#ffaf5f" stroke-width="3" stroke-opacity="1" stroke-linejoin="round"/>
 <path id="Path-26" d="M1624 914 L1531 1104 1322 857 1624 914 Z" fill="#fce587" fill-opacity="1" stroke="#f8f5bd" stroke-width="3" stroke-opacity="1" stroke-linejoin="round"/>
 <path id="Path-27" d="M1531 1104 L1839 1027 1624 914 1531 1104 Z" fill="#ffd59d" fill-opacity="1" stroke="#faecb1" stroke-width="3" stroke-opacity="1" stroke-linejoin="round"/>
 <path id="Path-28" d="M1839 1027 L1621 914 1813 855 1863 938 1839 1027 Z" fill="#ff837b" fill-opacity="1" stroke="#ff8c84" stroke-width="3" stroke-opacity="1" stroke-linejoin="round"/>
 <path id="Path-29" d="M1624 800 L1813 855 1730 708 1624 800 Z" fill="#ff5265" fill-opacity="1" stroke="#ff5b70" stroke-width="3" stroke-opacity="1" stroke-linejoin="round"/>
 <path id="Path-30" d="M1624 640 L1730 708 1594 747 1512 722 1624 640 Z" fill="#941426" fill-opacity="1" stroke="#940020" stroke-width="3" stroke-opacity="1" stroke-linejoin="round"/>
 <path id="Path-31" d="M2059 1065 L1886 1080 2067 892 2059 1065 Z" fill="#8b2266" fill-opacity="1" stroke="#941100" stroke-width="3" stroke-opacity="1" stroke-linejoin="round"/>
 <path id="Path-32" d="M1886 1080 L1742 1298 1839 1027 1886 1080 Z" fill="#99e4fb" fill-opacity="1" stroke="#c1f9f8" stroke-width="3" stroke-opacity="1" stroke-linejoin="round"/>
 <path id="Path-33" d="M1863 1336 L1886 1080 1742 1298 1863 1336 Z" fill="#78d3fc" fill-opacity="1" stroke="#aef5ff" stroke-width="3" stroke-opacity="1" stroke-linejoin="round"/>
 <path id="Path-34" d="M2067 1140 L2059 1065 2099 1065 2128 1138 2067 1140 Z" fill="#af206b" fill-opacity="1" stroke="#941100" stroke-width="3" stroke-opacity="1" stroke-linejoin="round"/>
 <path id="Path-35" d="M2059 1065 L2059 1080 2067 1140 1886 1080 2059 1065 Z" fill="#b84d96" fill-opacity="1" stroke="#941100" stroke-width="3" stroke-opacity="1" stroke-linejoin="round"/>
 <path id="Path-36" d="M2184 1152 L2147 1065 2099 1065 2128 1140 2184 1152 Z" fill="#bb245c" fill-opacity="1" stroke="#941544" stroke-width="3" stroke-opacity="1" stroke-linejoin="round"/>
 <path id="Path-37" d="M2128 1238 L2067 1140 1863 1336 2043 1254 2128 1238 Z" fill="#435bd0" fill-opacity="1" stroke="#2f4095" stroke-width="3" stroke-opacity="1" stroke-linejoin="round"/>
 <path id="Path-38" d="M2128 1233 L2184 1152 2128 1140 2067 1140 2128 1233 Z" fill="#7768ff" fill-opacity="1" stroke="#5449b6" stroke-width="3" stroke-opacity="1" stroke-linejoin="round"/>
 <path id="Path-39" d="M2226 1254 L2184 1152 2126 1238 2226 1254 Z" fill="#6053d0" fill-opacity="1" stroke="#413992" stroke-width="3" stroke-opacity="1" stroke-linejoin="round"/>
 <path id="Path-40" d="M2217 1152 L2226 1254 2149 1065 2217 1152 Z" fill="#ef003b" fill-opacity="1" stroke="#950026" stroke-width="3" stroke-opacity="1" stroke-linejoin="round"/>
 <path id="Path-41" d="M1719 1538 L1863 1336 2021 1364 2094 1460 1719 1538 Z" fill="#6779d4" fill-opacity="1" stroke="#434f8c" stroke-width="3" stroke-opacity="1" stroke-linejoin="round"/>
 <path id="Path-42" d="M2184 1464 C2175.625 1463.641 2094 1460.001 2094 1460.001 L2021 1362.001 2156 1379.001 Z" fill="#5b42c3" fill-opacity="1" stroke="#4935a0" stroke-width="3" stroke-opacity="1" stroke-linejoin="round"/>
 <path id="Path-43" d="M2243 1298 L2186 1464 2156 1377 2243 1298 Z" fill="#42308f" fill-opacity="1" stroke="#22184c" stroke-width="3" stroke-opacity="1" stroke-linejoin="round"/>
 <path id="Path-44" d="M2288 1508 L2243 1298 2184 1464 2288 1508 Z" fill="#9f4ae0" fill-opacity="1" stroke="#bb58ff" stroke-width="3" stroke-opacity="1" stroke-linejoin="round"/>
 <path id="Path-45" d="M2236 1569 L2288 1508 2186 1464 2236 1569 Z" fill="#b773df" fill-opacity="1" stroke="#d383ff" stroke-width="3" stroke-opacity="1" stroke-linejoin="round"/>
 <path id="Path-46" d="M2334 1590 L2288 1508 2236 1569 2334 1590 Z" fill="#3964e7" fill-opacity="1" stroke="#3d6fff" stroke-width="3" stroke-opacity="1" stroke-linejoin="round"/>
 <path id="Path-47" d="M2255 1753 L2334 1590 2236 1569 2255 1753 Z" fill="#243f8f" fill-opacity="1" stroke="#1c3375" stroke-width="3" stroke-opacity="1" stroke-linejoin="round"/>
 <path id="Path-48" d="M2041 1577 L2094 1464 2184 1464 2236 1569 2041 1577 Z" fill="#c495ff" fill-opacity="1" stroke="#dac5fc" stroke-width="3" stroke-opacity="1" stroke-linejoin="round"/>
 <path id="Path-49" d="M2041 1855 L2236 1569 2252 1753 2041 1855 Z" fill="#2d4dae" fill-opacity="1" stroke="#203980" stroke-width="3" stroke-opacity="1" stroke-linejoin="round"/>
 <path id="Path-50" d="M1884 1712 L2041 1577 2236 1569 1884 1712 Z" fill="#00a2ff" fill-opacity="1" stroke="#6be6fb" stroke-width="3" stroke-opacity="1" stroke-linejoin="round"/>
 <path id="Path-51" d="M1880 1712 L2041 1855 2237 1569 1880 1712 Z" fill="#385dcf" fill-opacity="1" stroke="#284397" stroke-width="3" stroke-opacity="1" stroke-linejoin="round"/>
 <path id="Path-52" d="M2041 1855 L1624 1833 1880 1712 2041 1855 Z" fill="#2c1ca1" fill-opacity="1" stroke="#190f5f" stroke-width="3" stroke-opacity="1" stroke-linejoin="round"/>
 <path id="Path-53" d="M1881 1711 L1473 1606 1719 1538 1881 1711 Z" fill="#2a61b3" fill-opacity="1" stroke="#1d437e" stroke-width="3" stroke-opacity="1" stroke-linejoin="round"/>
 <path id="Path-54" d="M1719 1538 L2041 1577 2094 1464 1719 1538 Z" fill="#49dafc" fill-opacity="1" stroke="#49dafc" stroke-width="3" stroke-opacity="1" stroke-linejoin="round"/>
 <path id="Path-55" d="M1742 1298 L1719 1538 1863 1336 1742 1298 Z" fill="#4fcffc" fill-opacity="1" stroke="#84e9fa" stroke-width="3" stroke-opacity="1" stroke-linejoin="round"/>
 <path id="Path-56" d="M1415 1362 L1063 1065 1531 1104 1415 1362 Z" fill="#4637dc" fill-opacity="1" stroke="#292186" stroke-width="3" stroke-opacity="1" stroke-linejoin="round"/>
 <path id="Path-57" d="M1417 1362 L1742 1298 1531 1104 1417 1362 Z" fill="#4aa4ff" fill-opacity="1" stroke="#2b5e92" stroke-width="3" stroke-opacity="1" stroke-linejoin="round"/>
 <path id="Path-58" d="M1417 1362 L975 1347 1063 1065 1417 1362 Z" fill="#3a60ff" fill-opacity="1" stroke="#76a9ff" stroke-width="3" stroke-opacity="1" stroke-linejoin="round"/>
 <path id="Path-59" d="M1417 1362 L1719 1538 1742 1298 1417 1362 Z" fill="#038adc" fill-opacity="1" stroke="#0464a2" stroke-width="3" stroke-opacity="1" stroke-linejoin="round"/>
 <path id="Path-60" d="M1719 1538 L1163 1686 1417 1362 1719 1538 Z" fill="#3e5fff" fill-opacity="1" stroke="#314dd2" stroke-width="3" stroke-opacity="1" stroke-linejoin="round"/>
 <path id="Path-61" d="M1163 1686 L975 1347 1417 1362 1163 1686 Z" fill="#003dc3" fill-opacity="1" stroke="#032d8f" stroke-width="3" stroke-opacity="1" stroke-linejoin="round"/>
 <path id="Path-62" d="M1417 1362 L1473 1606 1719 1538 1417 1362 Z" fill="#0076dd" fill-opacity="1" stroke="#025aa9" stroke-width="3" stroke-opacity="1" stroke-linejoin="round"/>
 <path id="Path-63" d="M2037 1577 L1880 1712 1719 1538 2037 1577 Z" fill="#0097f0" fill-opacity="1" stroke="#0097f0" stroke-width="3" stroke-opacity="1" stroke-linejoin="round"/>
 <path id="Path-64" d="M1624 1833 L1880 1712 1473 1606 1624 1833 Z" fill="#354095" fill-opacity="1" stroke="#242c66" stroke-width="3" stroke-opacity="1" stroke-linejoin="round"/>
 <path id="Path-65" d="M975 1347 L1063 1065 814 1104 975 1347 Z" fill="#4aaffe" fill-opacity="1" stroke="#4ab4ff" stroke-width="3" stroke-opacity="1" stroke-linejoin="round"/>
 <path id="Path-66" d="M2243 1298 L2156 1377 2156 1318 2243 1298 Z" fill="#0a5283" fill-opacity="1" stroke="#07243a" stroke-width="3" stroke-opacity="1" stroke-linejoin="round"/>
 <path id="Path-67" d="M2243 1298 L2156 1318 2128 1238 2226 1254 2243 1298 Z" fill="#2783ff" fill-opacity="1" stroke="#2783ff" stroke-width="3" stroke-opacity="1" stroke-linejoin="round"/>
 <path id="Path-68" d="M2156 1318 L1870 1336 2021 1362 2156 1377 2156 1318 Z" fill="#0a65a1" fill-opacity="1" stroke="#08395b" stroke-width="3" stroke-opacity="1" stroke-linejoin="round"/>
 <path id="Path-69" d="M2040 1254 L1870 1336 2156 1318 2126 1238 2040 1254 Z" fill="#00a2ff" fill-opacity="1" stroke="#67c9fd" stroke-width="3" stroke-opacity="1" stroke-linejoin="round"/>
 <path id="Path-70" d="M2067 1140 L1863 1336 1886 1080 2067 1140 Z" fill="#a6abfe" fill-opacity="1" stroke="#c4cdff" stroke-width="3" stroke-opacity="1" stroke-linejoin="round"/>
 <path id="Path-71" d="M803 832 L1322 857 1063 1065 803 832 Z" fill="#00f7ac" fill-opacity="1" stroke="#00ffb6" stroke-width="3" stroke-opacity="1" stroke-linejoin="round"/>
 <path id="Path-72" d="M815 1104 L1063 1065 803 832 815 1104 Z" fill="#005fb1" fill-opacity="1" stroke="#024c8e" stroke-width="3" stroke-opacity="1" stroke-linejoin="round"/>
 <path id="Path-73" d="M1063 1065 L1531 1104 1322 857 1063 1065 Z" fill="#bbf8c9" fill-opacity="1" stroke="#a8f8ba" stroke-width="3" stroke-opacity="1" stroke-linejoin="round"/>
 <path id="Path-74" d="M1026 679 L1322 855 803 830 1026 679 Z" fill="#01e609" fill-opacity="1" stroke="#00fe04" stroke-width="3" stroke-opacity="1" stroke-linejoin="round"/>
 <path id="Path-75" d="M974 526 L1025 679 803 832 974 526 Z" fill="#00d84b" fill-opacity="1" stroke="#00ff5b" stroke-width="3" stroke-opacity="1" stroke-linejoin="round"/>
 <path id="Path-76" d="M814 549 L975 526 933 448 814 549 Z" fill="#00ff00" fill-opacity="1" stroke="#83ff75" stroke-width="3" stroke-opacity="1" stroke-linejoin="round"/>
 <path id="Path-77" d="M814 549 L721 693 975 526 814 549 Z" fill="#00d800" fill-opacity="1" stroke="#08d00c" stroke-width="3" stroke-opacity="1" stroke-linejoin="round"/>
 <path id="Path-78" d="M600 1044 L803 832 814 1104 600 1044 Z" fill="#187581" fill-opacity="1" stroke="#114850" stroke-width="3" stroke-opacity="1" stroke-linejoin="round"/>
 <path id="Path-79" d="M657 832 L803 832 600 1044 657 832 Z" fill="#00beb3" fill-opacity="1" stroke="#08817b" stroke-width="3" stroke-opacity="1" stroke-linejoin="round"/>
 <path id="Path-80" d="M658 832 L721 693 803 832 658 832 Z" fill="#00904f" fill-opacity="1" stroke="#118d55" stroke-width="3" stroke-opacity="1" stroke-linejoin="round"/>
 <path id="Path-81" d="M721 697 L803 832 975 526 721 697 Z" fill="#00b100" fill-opacity="1" stroke="#0fa80e" stroke-width="3" stroke-opacity="1" stroke-linejoin="round"/>
 <path id="Path-82" d="M1440 641 L975 526 1025 679 1440 641 Z" fill="#00f836" fill-opacity="1" stroke="#00ff38" stroke-width="3" stroke-opacity="1" stroke-linejoin="round"/>
 <path id="Path-83" d="M1322 855 L1440 640 1025 679 1322 855 Z" fill="#00ff42" fill-opacity="1" stroke="#00ff57" stroke-width="3" stroke-opacity="1" stroke-linejoin="round"/>
 <path id="Path-84" d="M1164 344 L975 526 1440 640 1164 344 Z" fill="#bafe48" fill-opacity="1" stroke="#bdff4d" stroke-width="3" stroke-opacity="1" stroke-linejoin="round"/>
 <path id="Path-85" d="M1157 305 L1163 344 975 526 933 448 1157 305 Z" fill="#8fff36" fill-opacity="1" stroke="#a5ff9b" stroke-width="3" stroke-opacity="1" stroke-linejoin="round"/>
 <path id="Path-86" d="M1303 305 L1163 349 1160 305 1303 305 Z" fill="#c5fe15" fill-opacity="1" stroke="#c9ff1e" stroke-width="3" stroke-opacity="1" stroke-linejoin="round"/>
 <path id="Path-87" d="M1304 305 L1440 640 1163 349 1304 305 Z" fill="#f4fc1f" fill-opacity="1" stroke="#f6ff26" stroke-width="3" stroke-opacity="1" stroke-linejoin="round"/>
 <path id="Path-88" d="M1742 1298 L1839 1027 1531 1104 1742 1298 Z" fill="#dbfcce" fill-opacity="1" stroke="#d6fcde" stroke-width="3" stroke-opacity="1" stroke-linejoin="round"/>
 <path id="Path-89" d="M1440 640 L1585 359 1545 565 1440 640" fill="#ffb000" fill-opacity="1" stroke="#ffcd63" stroke-width="3" stroke-opacity="1" stroke-linejoin="round"/>
 <path id="Path-90" d="M1303 305 L1585 359 1440 640 1303 305 Z" fill="#fef000" fill-opacity="1" stroke="#fffc00" stroke-width="3" stroke-opacity="1" stroke-linejoin="round"/>
 <path id="Path-91" d="M2156 892 L2099 1065 2147 1065 2156 892 Z" fill="#8b2266" fill-opacity="1" stroke="#941100" stroke-width="3" stroke-opacity="1" stroke-linejoin="round"/>
 <path id="Path-92" d="M2128 855 L2156 892 2099 1065 2059 1065 2067 892 2128 855 Z" fill="#a9145a" fill-opacity="1" stroke="#941100" stroke-width="3" stroke-opacity="1" stroke-linejoin="round"/>
</svg>
